<svg xmlns="http://www.w3.org/2000/svg" width="40" height="35.001" viewBox="0 0 40 35.001">
  <g id="camera" transform="translate(0 -30.522)">
    <path id="Path_27" data-name="Path 27" d="M191.7,199.9a5,5,0,1,1-7.071,0,5,5,0,0,1,7.071,0" transform="translate(-168.163 -154.161)" fill="#515151"/>
    <path id="Path_28" data-name="Path 28" d="M35,35.522H31.545l-2.5-5H10.954l-2.5,5L5,35.531a5.009,5.009,0,0,0-4.992,5L0,60.522a5.006,5.006,0,0,0,5,5H35a5.005,5.005,0,0,0,5-5v-20A5.005,5.005,0,0,0,35,35.522ZM20,59.273a10,10,0,1,1,10-10,10.012,10.012,0,0,1-10,10Z" fill="#515151"/>
  </g>
</svg>
