<svg xmlns="http://www.w3.org/2000/svg" width="39.823" height="35.001" viewBox="0 0 39.823 35.001">
  <g id="portfolio" transform="translate(0)">
    <path id="Path_29" data-name="Path 29" d="M211,240h7v2.333h-7Zm0,0" transform="translate(-194.588 -221.333)" fill="#515151"/>
    <path id="Path_30" data-name="Path 30" d="M32.308,92.39H25.745v1.167a1.166,1.166,0,0,1-1.167,1.167H15.245a1.166,1.166,0,0,1-1.167-1.167V92.39H7.515A3.5,3.5,0,0,1,4.2,90L0,77.41v25.48a3.5,3.5,0,0,0,3.5,3.5H36.323a3.5,3.5,0,0,0,3.5-3.5V77.411L35.628,90a3.5,3.5,0,0,1-3.32,2.393Zm0,0" transform="translate(0 -71.389)" fill="#515151"/>
    <path id="Path_31" data-name="Path 31" d="M48.38,0H39.046a3.5,3.5,0,0,0-3.5,3.5V4.667H25.809l4.4,13.2a1.166,1.166,0,0,0,1.107.8H37.88V17.5a1.166,1.166,0,0,1,1.167-1.167H48.38A1.166,1.166,0,0,1,49.547,17.5v1.167H56.11a1.166,1.166,0,0,0,1.107-.8l4.4-13.2H51.88V3.5A3.5,3.5,0,0,0,48.38,0ZM37.88,4.667V3.5a1.167,1.167,0,0,1,1.167-1.167H48.38A1.167,1.167,0,0,1,49.547,3.5V4.667Zm0,0" transform="translate(-23.801)" fill="#515151"/>
  </g>
</svg>
