<svg xmlns="http://www.w3.org/2000/svg" width="35.8" height="42.91" viewBox="0 0 35.8 42.91">
  <g id="user" transform="translate(0 0)">
    <path id="Path_34" data-name="Path 34" d="M97.367,20.67a10,10,0,0,0,7.308-3.028,10,10,0,0,0,3.028-7.307,10,10,0,0,0-3.028-7.307,10.333,10.333,0,0,0-14.615,0,10,10,0,0,0-3.028,7.307,10,10,0,0,0,3.028,7.308A10,10,0,0,0,97.367,20.67Zm0,0" transform="translate(-79.738)" fill="#515151"/>
    <path id="Path_35" data-name="Path 35" d="M35.713,259.585a25.526,25.526,0,0,0-.348-2.711,21.362,21.362,0,0,0-.667-2.726,13.464,13.464,0,0,0-1.121-2.542,9.594,9.594,0,0,0-1.69-2.2,7.451,7.451,0,0,0-2.427-1.525,8.39,8.39,0,0,0-3.1-.561,3.145,3.145,0,0,0-1.68.712c-.5.328-1.092.708-1.75,1.128a10.026,10.026,0,0,1-2.264,1,8.792,8.792,0,0,1-5.539,0,10,10,0,0,1-2.263-1c-.651-.416-1.24-.8-1.751-1.129a3.141,3.141,0,0,0-1.679-.712,8.379,8.379,0,0,0-3.1.561A7.444,7.444,0,0,0,3.91,249.4a9.6,9.6,0,0,0-1.689,2.2A13.491,13.491,0,0,0,1.1,254.148a21.413,21.413,0,0,0-.667,2.726,25.437,25.437,0,0,0-.348,2.712C.029,260.407,0,261.259,0,262.12a7.125,7.125,0,0,0,2.116,5.391A7.618,7.618,0,0,0,7.569,269.5H28.231a7.616,7.616,0,0,0,5.453-1.989,7.122,7.122,0,0,0,2.116-5.391c0-.865-.029-1.717-.087-2.535Zm0,0" transform="translate(0 -226.589)" fill="#515151"/>
  </g>
</svg>
