<?xml version="1.0" standalone="no"?>
<!DOCTYPE svg PUBLIC "-//W3C//DTD SVG 20010904//EN"
 "http://www.w3.org/TR/2001/REC-SVG-20010904/DTD/svg10.dtd">
<svg version="1.0" xmlns="http://www.w3.org/2000/svg"
 width="1001.000000pt" height="1001.000000pt" viewBox="0 0 1001.000000 1001.000000"
 preserveAspectRatio="xMidYMid meet">
<metadata>
Created by potrace 1.14, written by Peter Selinger 2001-2017
</metadata>
<g transform="translate(0.000000,1001.000000) scale(0.100000,-0.100000)"
fill="#000000" stroke="none">
<path d="M0 5649 l0 -2261 103 -132 c56 -72 118 -151 137 -177 19 -25 101
-130 181 -235 80 -104 177 -230 215 -280 165 -218 410 -535 573 -742 97 -123
189 -241 206 -263 l29 -40 -19 -35 c-19 -35 -130 -172 -246 -305 -114 -129
-139 -161 -135 -167 3 -6 1857 -8 1946 -2 23 1 23 2 -10 18 -407 190 -621 313
-880 506 -342 255 -631 563 -862 921 -191 295 -350 648 -456 1012 -40 133 -81
296 -97 378 -5 22 -9 45 -11 50 -8 38 -45 255 -54 325 -17 122 -15 110 -36
315 -8 83 -13 162 -20 337 -6 158 -5 171 17 235 13 37 26 73 30 78 4 6 17 28
29 50 80 144 241 319 306 331 19 3 61 2 92 -4 31 -6 122 -23 202 -37 80 -15
273 -52 430 -82 157 -30 296 -57 310 -59 14 -3 104 -21 200 -40 96 -20 189
-38 205 -41 17 -2 46 -8 65 -13 19 -5 51 -12 70 -15 19 -3 55 -11 80 -16 35
-8 296 -63 405 -85 11 -2 43 -8 70 -14 28 -6 59 -12 70 -14 11 -2 40 -9 65
-15 25 -6 196 -42 380 -81 184 -39 362 -77 395 -85 53 -13 115 -26 195 -41 14
-3 32 -7 40 -9 8 -3 33 -7 55 -11 22 -3 43 -8 46 -9 3 -2 59 -15 125 -29 65
-14 184 -39 264 -57 80 -17 165 -35 189 -40 43 -9 69 -28 169 -124 l43 -42
-171 -129 c-94 -71 -177 -134 -183 -139 -7 -6 -192 -148 -412 -315 -220 -167
-436 -331 -480 -365 -220 -168 -495 -378 -683 -520 -80 -61 -146 -115 -146
-120 -1 -5 13 -12 29 -16 17 -4 64 -16 105 -27 74 -20 215 -52 255 -57 11 -2
58 -10 105 -18 179 -32 315 -42 595 -42 214 0 338 6 430 20 17 2 62 9 100 14
257 39 642 140 843 223 15 6 32 12 37 14 39 10 313 132 470 209 216 107 425
222 657 363 88 53 167 102 176 107 9 6 28 17 42 26 14 9 77 49 140 88 63 40
219 139 345 221 402 260 783 498 835 523 8 4 30 16 48 27 171 104 551 300 727
375 224 95 503 192 683 236 107 26 110 9 -23 148 -128 134 -242 243 -355 341
-29 25 -57 50 -64 55 -6 6 -45 38 -86 71 -581 467 -1249 805 -2045 1034 -177
51 -385 105 -444 115 -19 3 -37 8 -41 10 -3 2 -19 6 -34 9 -16 3 -83 16 -150
30 -66 14 -170 34 -231 45 -112 21 -121 22 -235 41 -36 5 -78 12 -95 15 -69
11 -93 15 -145 21 -30 3 -58 8 -61 10 -4 2 -35 7 -70 10 -35 3 -66 8 -69 9 -3
2 -37 7 -75 10 -38 4 -76 8 -85 10 -8 2 -46 6 -85 10 -38 4 -78 9 -87 11 -9 1
-48 6 -85 10 -37 3 -79 8 -93 10 -14 1 -56 6 -94 9 -38 4 -77 8 -86 10 -9 2
-54 6 -101 10 -46 4 -91 8 -99 10 -8 2 -53 6 -100 10 -47 4 -92 8 -100 10 -8
2 -53 6 -100 10 -47 4 -92 9 -101 10 -8 2 -55 6 -105 10 -49 4 -96 9 -105 10
-9 2 -52 6 -95 10 -43 4 -90 8 -104 10 -26 4 -78 9 -185 20 -33 3 -71 8 -85
10 -14 2 -54 7 -90 10 -36 4 -78 8 -95 10 -16 2 -59 7 -95 11 -36 3 -67 8 -70
9 -3 2 -34 6 -70 9 -36 4 -76 9 -90 11 -14 2 -45 7 -70 10 -49 7 -276 41 -325
49 -65 11 -221 37 -245 41 -14 3 -70 13 -125 24 -116 23 -116 23 -300 55 -77
14 -160 28 -185 31 -25 3 -85 12 -135 20 -49 8 -117 17 -150 21 -33 3 -68 8
-77 9 -9 2 -48 7 -85 10 -37 4 -75 8 -83 10 -8 2 -51 7 -95 11 -44 3 -88 8
-97 10 -10 1 -57 6 -105 9 -49 3 -99 8 -113 10 -14 2 -65 6 -115 10 -49 3
-108 8 -130 10 -22 2 -87 7 -145 11 -58 3 -127 7 -155 9 -27 2 -105 6 -172 10
l-123 6 0 -2262z"/>
</g>
</svg>
