<svg xmlns="http://www.w3.org/2000/svg" width="16.988" height="10.646" viewBox="0 0 16.988 10.646">
  <path id="behance" d="M0,4.48V14.93H5.065a5.323,5.323,0,0,0,1.366-.176,3.644,3.644,0,0,0,1.189-.542,2.666,2.666,0,0,0,.827-.946,2.9,2.9,0,0,0,.3-1.37,2.9,2.9,0,0,0-.472-1.677,2.491,2.491,0,0,0-1.435-.973,2.6,2.6,0,0,0,1.066-.862,2.294,2.294,0,0,0,.358-1.317,2.809,2.809,0,0,0-.239-1.226,2.025,2.025,0,0,0-.682-.8A2.974,2.974,0,0,0,6.29,4.613,6.436,6.436,0,0,0,4.927,4.48Zm11.09.7V6.213h4.236V5.181ZM2.3,6.26H4.454a3.071,3.071,0,0,1,.592.052,1.433,1.433,0,0,1,.507.184.952.952,0,0,1,.355.363,1.242,1.242,0,0,1,.128.6,1.1,1.1,0,0,1-.393.95A1.664,1.664,0,0,1,4.629,8.7H2.3Zm11,.889a3.93,3.93,0,0,0-1.578.309A3.67,3.67,0,0,0,9.708,9.569a4.438,4.438,0,0,0-.279,1.583A4.624,4.624,0,0,0,9.7,12.765a3.726,3.726,0,0,0,.768,1.261,3.426,3.426,0,0,0,1.222.814,4.351,4.351,0,0,0,1.614.287,3.926,3.926,0,0,0,2.191-.589,3.472,3.472,0,0,0,1.349-1.952h-1.83a1.334,1.334,0,0,1-.555.67,1.855,1.855,0,0,1-1.086.318,1.849,1.849,0,0,1-1.344-.457,2.118,2.118,0,0,1-.514-1.468h5.46a5.359,5.359,0,0,0-.145-1.684,4.1,4.1,0,0,0-.665-1.436,3.351,3.351,0,0,0-1.18-1A3.583,3.583,0,0,0,13.3,7.149Zm-.063,1.569a1.555,1.555,0,0,1,1.176.421,2.025,2.025,0,0,1,.479,1.2H11.516a2.35,2.35,0,0,1,.095-.5,1.489,1.489,0,0,1,.278-.533,1.672,1.672,0,0,1,.527-.417,1.786,1.786,0,0,1,.826-.17ZM2.3,10.273H4.8a1.941,1.941,0,0,1,1.2.342,1.364,1.364,0,0,1,.453,1.153,1.443,1.443,0,0,1-.138.677,1.109,1.109,0,0,1-.374.417,1.528,1.528,0,0,1-.542.222,2.96,2.96,0,0,1-.645.065H2.3Z" transform="translate(0 -4.48)" fill="#fff"/>
</svg>
