<svg xmlns="http://www.w3.org/2000/svg" width="14.994" height="14.994" viewBox="0 0 14.994 14.994">
  <path id="instagram" d="M7.5,0C5.46,0,5.206.009,4.406.045a5.528,5.528,0,0,0-1.82.349,3.671,3.671,0,0,0-1.328.865A3.658,3.658,0,0,0,.394,2.587a5.512,5.512,0,0,0-.349,1.82C.007,5.206,0,5.46,0,7.5s.009,2.291.045,3.091a5.532,5.532,0,0,0,.349,1.82,3.677,3.677,0,0,0,.865,1.328,3.666,3.666,0,0,0,1.328.865,5.535,5.535,0,0,0,1.82.349c.8.037,1.054.045,3.091.045s2.291-.009,3.091-.045a5.548,5.548,0,0,0,1.82-.349A3.832,3.832,0,0,0,14.6,12.408a5.532,5.532,0,0,0,.349-1.82c.037-.8.045-1.054.045-3.091s-.009-2.291-.045-3.091a5.544,5.544,0,0,0-.349-1.82,3.68,3.68,0,0,0-.865-1.328A3.653,3.653,0,0,0,12.408.394a5.516,5.516,0,0,0-1.82-.349C9.788.007,9.534,0,7.5,0Zm0,1.349c2,0,2.24.01,3.03.044a4.131,4.131,0,0,1,1.391.259,2.467,2.467,0,0,1,1.423,1.423A4.139,4.139,0,0,1,13.6,4.467c.036.791.044,1.028.044,3.03s-.009,2.24-.046,3.03a4.219,4.219,0,0,1-.263,1.391,2.381,2.381,0,0,1-.562.863,2.339,2.339,0,0,1-.862.56,4.17,4.17,0,0,1-1.4.258c-.8.036-1.03.044-3.036.044s-2.24-.009-3.036-.046a4.251,4.251,0,0,1-1.4-.263,2.322,2.322,0,0,1-.862-.562,2.276,2.276,0,0,1-.562-.862,4.255,4.255,0,0,1-.262-1.4c-.028-.787-.038-1.03-.038-3.026s.01-2.24.038-3.037a4.25,4.25,0,0,1,.262-1.4,2.222,2.222,0,0,1,.562-.863,2.217,2.217,0,0,1,.862-.561,4.15,4.15,0,0,1,1.388-.263c.8-.028,1.031-.037,3.036-.037l.028.019Zm0,2.3a3.85,3.85,0,1,0,3.85,3.85A3.85,3.85,0,0,0,7.5,3.647ZM7.5,10A2.5,2.5,0,1,1,10,7.5,2.5,2.5,0,0,1,7.5,10Zm4.9-6.5a.9.9,0,1,1-.9-.9A.9.9,0,0,1,12.4,3.5Z" fill="#fff"/>
</svg>
