<svg xmlns="http://www.w3.org/2000/svg" width="14.994" height="12.187" viewBox="0 0 14.994 12.187">
  <path id="twitter" d="M14.965,3.7a6.248,6.248,0,0,1-1.765.484,3.1,3.1,0,0,0,1.351-1.7,6.349,6.349,0,0,1-1.954.74,3.074,3.074,0,0,0-5.238,2.8,8.708,8.708,0,0,1-6.335-3.2A3.013,3.013,0,0,0,.609,4.365,3.074,3.074,0,0,0,1.976,6.924,3.064,3.064,0,0,1,.584,6.539v.037A3.076,3.076,0,0,0,3.049,9.592a3.121,3.121,0,0,1-1.382.053A3.084,3.084,0,0,0,4.543,11.78,6.165,6.165,0,0,1,.731,13.1,6.525,6.525,0,0,1,0,13.053a8.744,8.744,0,0,0,4.721,1.38A8.682,8.682,0,0,0,13.467,5.7c0-.131,0-.262-.009-.394a6.207,6.207,0,0,0,1.537-1.592Z" transform="translate(0 -2.246)" fill="#fff"/>
</svg>
