<svg xmlns="http://www.w3.org/2000/svg" width="142.737" height="90.6" viewBox="0 0 142.737 90.6">
  <g id="Logo" transform="translate(-67 -51.4)">
    <text id="Photography" transform="translate(67 138)" fill="#988164" font-size="14" font-family="SegoeUI, Segoe UI" letter-spacing="0.293em"><tspan x="0" y="0">PHOTOGRAPHY</tspan></text>
    <text id="Living_Earth" data-name="Living Earth" transform="translate(67 119)" fill="#515151" font-size="15" font-family="SegoeUI, Segoe UI"><tspan x="0" y="0">Living Earth</tspan></text>
    <g id="Group_2" data-name="Group 2" transform="translate(72.584 51.4)" opacity="0.85">
      <g id="Group_1" data-name="Group 1">
        <path id="Path_1" data-name="Path 1" d="M228.735,347.137c-7.932-1.686-15.846-3.467-23.825-4.883-.655-.116-2.545,2.269-2.517,3.461.252,10.789,4.179,19.47,14.811,23.926H205.265c.854-1.08,2.624-2.891,2.43-3.133-6.068-7.565-11.578-15.808-18.72-22.234-13.283-11.953-30.051-18.508-45.606-26.93-7.106-3.848-13.762-8.538-20.535-12.976-1.054-.691-1.649-2.082-2.456-3.15,1.5-.313,3.234-1.255,4.458-.808,2.581.941,4.866,2.664,7.323,3.97,9.979,5.3,20.393,9.925,29.874,16,15.795,10.119,33.705,6.013,50.368,9.331,15.2,3.026,32.845.363,45.13,14.042-13.688,3.078-23.225,18.88-40.338,13.865l12.526-9.538c1.04-7.676-.9-9.448-13.167-11.623,2.755,1.913,6.314,1.8,9.22,3.263C228.8,341.243,232.279,342.873,228.735,347.137Z" transform="translate(-120.379 -300.293)" fill="#242525"/>
        <path id="Path_2" data-name="Path 2" d="M340.634,389.422c-1.3-2.042-2.13-5.061-3.979-5.933-4.661-2.2-9.779-3.425-14.447-5.89,7.769-2.133,14.949-1.213,20.2,4.934,1.18,1.381-.452,5.158-.79,7.832Q341.131,389.888,340.634,389.422Z" transform="translate(-232.278 -342.578)" fill="#f9f9f9"/>
      </g>
      <circle id="Ellipse_1" data-name="Ellipse 1" cx="1.722" cy="1.722" r="1.722" transform="translate(124.529 39.512)" fill="#f9f9f9"/>
    </g>
  </g>
</svg>
